<?xml version="1.0" encoding="UTF-8"?>
<svg id="Layer_1" xmlns="http://www.w3.org/2000/svg" version="1.1" viewBox="0 0 700 700">
  <!-- Generator: Adobe Illustrator 29.7.1, SVG Export Plug-In . SVG Version: 2.1.1 Build 8)  -->
  <defs>
    <style>
      .st0 {
        fill: #2b3252;
      }

      .st1 {
        fill: #fff;
      }
    </style>
  </defs>
  <rect class="st0" width="700" height="700"/>
  <path class="st1" d="M507.99,354.37c32.2,19.07,47.18,49.93,41.4,85.27-7.2,44.05-49.44,74.56-93.49,67.51-39.73-6.35-69.19-40.76-69.24-80.97-.05-43.5.07-86.99-.07-130.49-.04-13.48.57-26.95-.82-40.44-3.95-38.47-21.8-69.35-50.6-94.42-1.07-.93-2.17-2.2-4.11-1.39-1.39,2.55-.76,5.44-.76,8.18-.05,86.99-.02,173.99-.09,260.98,0,8.87.67,17.66,2.44,26.3,15.31,74.69,84.62,120.76,158.7,108.35,81.5-13.65,130.58-88.58,112.7-168.53-14.96-66.89-74.05-105.65-134.44-107.36-20.72-.59-41.13,2.36-61.48,5.8-7.41,1.25-8.75,2.7-8.76,10.03-.02,23.83-.01,47.66.04,71.5,0,1.57-.62,3.35.9,4.73,2.27-.01,2.93-2.02,4-3.34,26.55-32.66,65.4-41.01,103.68-21.72"/>
  <path class="st1" d="M124.51,203.96c-14.72,28.47-19.64,58.64-13.87,90.07,13.42,73.02,77.03,117.91,149.6,114.38,15.29-.74,30.47-2.61,45.62-4.79,7.73-1.11,9.89-3.22,9.74-10.99-.43-21.3-.62-42.6-.05-63.91.08-2.91,1.76-7.22-2-8.46-3.19-1.06-4.71,3.08-6.68,5.13-18.89,19.7-42.06,29.01-69.02,25.62-60.13-7.58-91.22-72.35-59.96-124.18,15.57-25.82,39.36-38.6,69.01-38.84,24.83-.2,45.74,10.39,62.82,28.42,1.2,1.27,2.23,3.45,4.39,2.5,2.03-.89,1.52-3.15,1.49-4.92-.18-10.15-.83-20.31-.54-30.44.27-9.32.48-18.63.61-27.95.08-5.7-2.35-9.45-7.47-11.78-27.5-12.54-56.33-16.17-85.83-10.76-43.37,7.94-75.83,31.81-97.86,70.91Z"/>
</svg>